
<svg stroke="#221F20" fill="#221F20" stroke-width="0" viewBox="0 0 100 100" height="400px"
  width="400px" xmlns="http://www.w3.org/2000/svg">
  

  <circle cx="50" cy="50" r="30" />
  <circle cx="50" cy="50" r="33" fill="none" stroke-width="1"/>
  <circle cx="50" cy="50" r="36" fill="none" stroke-width="1"/>
  <circle cx="50" cy="50" r="40" fill="none" stroke-width="7" stroke="#BA7439"/>
  <circle cx="50" cy="50" r="44" fill="none" stroke-width="1"/>
  <circle cx="50" cy="50" r="47" fill="none" stroke-width="1"/>
  
  <g transform="rotate(0 50 50)">
    <g transform="rotate(45 50 7.4)">
      <rect x="50" y="7.4" width="3.8" height="3.8" fill="none" stroke="#353233ff" stroke-width="0.8"/>
      <circle cx="50" cy="7.4" r="0.5" fill="#372128ff" transform="translate(-1.3 2)"/>
      <circle cx="50" cy="7.4" r="0.5" fill="#372128ff" transform="translate(2 -1.3)"/>
      <circle cx="50" cy="7.4" r="0.5" fill="#372128ff" transform="translate(2 5.2)"/>
      <circle cx="50" cy="7.4" r="0.5" fill="#372128ff" transform="translate(5.2 2)"/>
    </g>
  </g>  
  

  <g transform="rotate(15 50 50)">
    <g transform="rotate(45 50 7.4)">
      <rect x="50" y="7.4" width="3.8" height="3.8" fill="none" stroke="#353233ff" stroke-width="0.8"/>
      <circle cx="50" cy="7.4" r="0.5" fill="#372128ff" transform="translate(-1.3 2)"/>
      <circle cx="50" cy="7.4" r="0.5" fill="#372128ff" transform="translate(2 -1.3)"/>
      <circle cx="50" cy="7.4" r="0.5" fill="#372128ff" transform="translate(2 5.2)"/>
      <circle cx="50" cy="7.4" r="0.5" fill="#372128ff" transform="translate(5.2 2)"/>
    </g>
  </g>  
  

  <g transform="rotate(30 50 50)">
    <g transform="rotate(45 50 7.4)">
      <rect x="50" y="7.4" width="3.8" height="3.8" fill="none" stroke="#353233ff" stroke-width="0.8"/>
      <circle cx="50" cy="7.4" r="0.5" fill="#372128ff" transform="translate(-1.3 2)"/>
      <circle cx="50" cy="7.4" r="0.5" fill="#372128ff" transform="translate(2 -1.3)"/>
      <circle cx="50" cy="7.4" r="0.5" fill="#372128ff" transform="translate(2 5.2)"/>
      <circle cx="50" cy="7.4" r="0.5" fill="#372128ff" transform="translate(5.2 2)"/>
    </g>
  </g>  
  

  <g transform="rotate(45 50 50)">
    <g transform="rotate(45 50 7.4)">
      <rect x="50" y="7.4" width="3.8" height="3.8" fill="none" stroke="#353233ff" stroke-width="0.8"/>
      <circle cx="50" cy="7.4" r="0.5" fill="#372128ff" transform="translate(-1.3 2)"/>
      <circle cx="50" cy="7.4" r="0.5" fill="#372128ff" transform="translate(2 -1.3)"/>
      <circle cx="50" cy="7.4" r="0.5" fill="#372128ff" transform="translate(2 5.2)"/>
      <circle cx="50" cy="7.4" r="0.5" fill="#372128ff" transform="translate(5.2 2)"/>
    </g>
  </g>  
  

  <g transform="rotate(60 50 50)">
    <g transform="rotate(45 50 7.4)">
      <rect x="50" y="7.4" width="3.8" height="3.8" fill="none" stroke="#353233ff" stroke-width="0.8"/>
      <circle cx="50" cy="7.4" r="0.5" fill="#372128ff" transform="translate(-1.3 2)"/>
      <circle cx="50" cy="7.4" r="0.5" fill="#372128ff" transform="translate(2 -1.3)"/>
      <circle cx="50" cy="7.4" r="0.5" fill="#372128ff" transform="translate(2 5.2)"/>
      <circle cx="50" cy="7.4" r="0.5" fill="#372128ff" transform="translate(5.2 2)"/>
    </g>
  </g>  
  

  <g transform="rotate(75 50 50)">
    <g transform="rotate(45 50 7.4)">
      <rect x="50" y="7.4" width="3.8" height="3.8" fill="none" stroke="#353233ff" stroke-width="0.8"/>
      <circle cx="50" cy="7.4" r="0.5" fill="#372128ff" transform="translate(-1.3 2)"/>
      <circle cx="50" cy="7.4" r="0.5" fill="#372128ff" transform="translate(2 -1.3)"/>
      <circle cx="50" cy="7.4" r="0.5" fill="#372128ff" transform="translate(2 5.2)"/>
      <circle cx="50" cy="7.4" r="0.5" fill="#372128ff" transform="translate(5.2 2)"/>
    </g>
  </g>  
  

  <g transform="rotate(90 50 50)">
    <g transform="rotate(45 50 7.4)">
      <rect x="50" y="7.4" width="3.8" height="3.8" fill="none" stroke="#353233ff" stroke-width="0.8"/>
      <circle cx="50" cy="7.4" r="0.5" fill="#372128ff" transform="translate(-1.3 2)"/>
      <circle cx="50" cy="7.4" r="0.5" fill="#372128ff" transform="translate(2 -1.3)"/>
      <circle cx="50" cy="7.4" r="0.5" fill="#372128ff" transform="translate(2 5.2)"/>
      <circle cx="50" cy="7.4" r="0.5" fill="#372128ff" transform="translate(5.2 2)"/>
    </g>
  </g>  
  

  <g transform="rotate(105 50 50)">
    <g transform="rotate(45 50 7.4)">
      <rect x="50" y="7.4" width="3.8" height="3.8" fill="none" stroke="#353233ff" stroke-width="0.8"/>
      <circle cx="50" cy="7.4" r="0.5" fill="#372128ff" transform="translate(-1.3 2)"/>
      <circle cx="50" cy="7.4" r="0.5" fill="#372128ff" transform="translate(2 -1.3)"/>
      <circle cx="50" cy="7.4" r="0.5" fill="#372128ff" transform="translate(2 5.2)"/>
      <circle cx="50" cy="7.4" r="0.5" fill="#372128ff" transform="translate(5.2 2)"/>
    </g>
  </g>  
  

  <g transform="rotate(120 50 50)">
    <g transform="rotate(45 50 7.4)">
      <rect x="50" y="7.4" width="3.8" height="3.8" fill="none" stroke="#353233ff" stroke-width="0.8"/>
      <circle cx="50" cy="7.4" r="0.5" fill="#372128ff" transform="translate(-1.3 2)"/>
      <circle cx="50" cy="7.4" r="0.5" fill="#372128ff" transform="translate(2 -1.3)"/>
      <circle cx="50" cy="7.4" r="0.5" fill="#372128ff" transform="translate(2 5.2)"/>
      <circle cx="50" cy="7.4" r="0.5" fill="#372128ff" transform="translate(5.2 2)"/>
    </g>
  </g>  
  

  <g transform="rotate(135 50 50)">
    <g transform="rotate(45 50 7.4)">
      <rect x="50" y="7.4" width="3.8" height="3.8" fill="none" stroke="#353233ff" stroke-width="0.8"/>
      <circle cx="50" cy="7.4" r="0.5" fill="#372128ff" transform="translate(-1.3 2)"/>
      <circle cx="50" cy="7.4" r="0.5" fill="#372128ff" transform="translate(2 -1.3)"/>
      <circle cx="50" cy="7.4" r="0.5" fill="#372128ff" transform="translate(2 5.2)"/>
      <circle cx="50" cy="7.4" r="0.5" fill="#372128ff" transform="translate(5.2 2)"/>
    </g>
  </g>  
  

  <g transform="rotate(150 50 50)">
    <g transform="rotate(45 50 7.4)">
      <rect x="50" y="7.4" width="3.8" height="3.8" fill="none" stroke="#353233ff" stroke-width="0.8"/>
      <circle cx="50" cy="7.4" r="0.5" fill="#372128ff" transform="translate(-1.3 2)"/>
      <circle cx="50" cy="7.4" r="0.5" fill="#372128ff" transform="translate(2 -1.3)"/>
      <circle cx="50" cy="7.4" r="0.5" fill="#372128ff" transform="translate(2 5.2)"/>
      <circle cx="50" cy="7.4" r="0.5" fill="#372128ff" transform="translate(5.2 2)"/>
    </g>
  </g>  
  

  <g transform="rotate(165 50 50)">
    <g transform="rotate(45 50 7.4)">
      <rect x="50" y="7.4" width="3.8" height="3.8" fill="none" stroke="#353233ff" stroke-width="0.8"/>
      <circle cx="50" cy="7.4" r="0.5" fill="#372128ff" transform="translate(-1.3 2)"/>
      <circle cx="50" cy="7.4" r="0.5" fill="#372128ff" transform="translate(2 -1.3)"/>
      <circle cx="50" cy="7.4" r="0.5" fill="#372128ff" transform="translate(2 5.2)"/>
      <circle cx="50" cy="7.4" r="0.5" fill="#372128ff" transform="translate(5.2 2)"/>
    </g>
  </g>  
  

  <g transform="rotate(180 50 50)">
    <g transform="rotate(45 50 7.4)">
      <rect x="50" y="7.4" width="3.8" height="3.8" fill="none" stroke="#353233ff" stroke-width="0.8"/>
      <circle cx="50" cy="7.4" r="0.5" fill="#372128ff" transform="translate(-1.3 2)"/>
      <circle cx="50" cy="7.4" r="0.5" fill="#372128ff" transform="translate(2 -1.3)"/>
      <circle cx="50" cy="7.4" r="0.5" fill="#372128ff" transform="translate(2 5.2)"/>
      <circle cx="50" cy="7.4" r="0.5" fill="#372128ff" transform="translate(5.2 2)"/>
    </g>
  </g>  
  

  <g transform="rotate(195 50 50)">
    <g transform="rotate(45 50 7.4)">
      <rect x="50" y="7.4" width="3.8" height="3.8" fill="none" stroke="#353233ff" stroke-width="0.8"/>
      <circle cx="50" cy="7.4" r="0.5" fill="#372128ff" transform="translate(-1.3 2)"/>
      <circle cx="50" cy="7.4" r="0.5" fill="#372128ff" transform="translate(2 -1.3)"/>
      <circle cx="50" cy="7.4" r="0.5" fill="#372128ff" transform="translate(2 5.2)"/>
      <circle cx="50" cy="7.4" r="0.5" fill="#372128ff" transform="translate(5.2 2)"/>
    </g>
  </g>  
  

  <g transform="rotate(210 50 50)">
    <g transform="rotate(45 50 7.4)">
      <rect x="50" y="7.4" width="3.8" height="3.8" fill="none" stroke="#353233ff" stroke-width="0.8"/>
      <circle cx="50" cy="7.4" r="0.5" fill="#372128ff" transform="translate(-1.3 2)"/>
      <circle cx="50" cy="7.4" r="0.5" fill="#372128ff" transform="translate(2 -1.3)"/>
      <circle cx="50" cy="7.4" r="0.5" fill="#372128ff" transform="translate(2 5.2)"/>
      <circle cx="50" cy="7.4" r="0.5" fill="#372128ff" transform="translate(5.2 2)"/>
    </g>
  </g>  
  

  <g transform="rotate(225 50 50)">
    <g transform="rotate(45 50 7.4)">
      <rect x="50" y="7.4" width="3.8" height="3.8" fill="none" stroke="#353233ff" stroke-width="0.8"/>
      <circle cx="50" cy="7.4" r="0.5" fill="#372128ff" transform="translate(-1.3 2)"/>
      <circle cx="50" cy="7.4" r="0.5" fill="#372128ff" transform="translate(2 -1.3)"/>
      <circle cx="50" cy="7.4" r="0.5" fill="#372128ff" transform="translate(2 5.2)"/>
      <circle cx="50" cy="7.4" r="0.5" fill="#372128ff" transform="translate(5.2 2)"/>
    </g>
  </g>  
  

  <g transform="rotate(240 50 50)">
    <g transform="rotate(45 50 7.4)">
      <rect x="50" y="7.4" width="3.8" height="3.8" fill="none" stroke="#353233ff" stroke-width="0.8"/>
      <circle cx="50" cy="7.4" r="0.5" fill="#372128ff" transform="translate(-1.3 2)"/>
      <circle cx="50" cy="7.4" r="0.5" fill="#372128ff" transform="translate(2 -1.3)"/>
      <circle cx="50" cy="7.4" r="0.5" fill="#372128ff" transform="translate(2 5.2)"/>
      <circle cx="50" cy="7.4" r="0.5" fill="#372128ff" transform="translate(5.2 2)"/>
    </g>
  </g>  
  

  <g transform="rotate(255 50 50)">
    <g transform="rotate(45 50 7.4)">
      <rect x="50" y="7.4" width="3.8" height="3.8" fill="none" stroke="#353233ff" stroke-width="0.8"/>
      <circle cx="50" cy="7.4" r="0.5" fill="#372128ff" transform="translate(-1.3 2)"/>
      <circle cx="50" cy="7.4" r="0.5" fill="#372128ff" transform="translate(2 -1.3)"/>
      <circle cx="50" cy="7.4" r="0.5" fill="#372128ff" transform="translate(2 5.2)"/>
      <circle cx="50" cy="7.4" r="0.5" fill="#372128ff" transform="translate(5.2 2)"/>
    </g>
  </g>  
  

  <g transform="rotate(270 50 50)">
    <g transform="rotate(45 50 7.4)">
      <rect x="50" y="7.4" width="3.8" height="3.8" fill="none" stroke="#353233ff" stroke-width="0.8"/>
      <circle cx="50" cy="7.4" r="0.5" fill="#372128ff" transform="translate(-1.3 2)"/>
      <circle cx="50" cy="7.4" r="0.5" fill="#372128ff" transform="translate(2 -1.3)"/>
      <circle cx="50" cy="7.4" r="0.5" fill="#372128ff" transform="translate(2 5.2)"/>
      <circle cx="50" cy="7.4" r="0.5" fill="#372128ff" transform="translate(5.2 2)"/>
    </g>
  </g>  
  

  <g transform="rotate(285 50 50)">
    <g transform="rotate(45 50 7.4)">
      <rect x="50" y="7.4" width="3.8" height="3.8" fill="none" stroke="#353233ff" stroke-width="0.8"/>
      <circle cx="50" cy="7.4" r="0.5" fill="#372128ff" transform="translate(-1.3 2)"/>
      <circle cx="50" cy="7.4" r="0.5" fill="#372128ff" transform="translate(2 -1.3)"/>
      <circle cx="50" cy="7.4" r="0.5" fill="#372128ff" transform="translate(2 5.2)"/>
      <circle cx="50" cy="7.4" r="0.5" fill="#372128ff" transform="translate(5.2 2)"/>
    </g>
  </g>  
  

  <g transform="rotate(300 50 50)">
    <g transform="rotate(45 50 7.4)">
      <rect x="50" y="7.4" width="3.8" height="3.8" fill="none" stroke="#353233ff" stroke-width="0.8"/>
      <circle cx="50" cy="7.4" r="0.5" fill="#372128ff" transform="translate(-1.3 2)"/>
      <circle cx="50" cy="7.4" r="0.5" fill="#372128ff" transform="translate(2 -1.3)"/>
      <circle cx="50" cy="7.4" r="0.5" fill="#372128ff" transform="translate(2 5.2)"/>
      <circle cx="50" cy="7.4" r="0.5" fill="#372128ff" transform="translate(5.2 2)"/>
    </g>
  </g>  
  

  <g transform="rotate(315 50 50)">
    <g transform="rotate(45 50 7.4)">
      <rect x="50" y="7.4" width="3.8" height="3.8" fill="none" stroke="#353233ff" stroke-width="0.8"/>
      <circle cx="50" cy="7.4" r="0.5" fill="#372128ff" transform="translate(-1.3 2)"/>
      <circle cx="50" cy="7.4" r="0.5" fill="#372128ff" transform="translate(2 -1.3)"/>
      <circle cx="50" cy="7.4" r="0.5" fill="#372128ff" transform="translate(2 5.2)"/>
      <circle cx="50" cy="7.4" r="0.5" fill="#372128ff" transform="translate(5.2 2)"/>
    </g>
  </g>  
  

  <g transform="rotate(330 50 50)">
    <g transform="rotate(45 50 7.4)">
      <rect x="50" y="7.4" width="3.8" height="3.8" fill="none" stroke="#353233ff" stroke-width="0.8"/>
      <circle cx="50" cy="7.4" r="0.5" fill="#372128ff" transform="translate(-1.3 2)"/>
      <circle cx="50" cy="7.4" r="0.5" fill="#372128ff" transform="translate(2 -1.3)"/>
      <circle cx="50" cy="7.4" r="0.5" fill="#372128ff" transform="translate(2 5.2)"/>
      <circle cx="50" cy="7.4" r="0.5" fill="#372128ff" transform="translate(5.2 2)"/>
    </g>
  </g>  
  

  <g transform="rotate(345 50 50)">
    <g transform="rotate(45 50 7.4)">
      <rect x="50" y="7.4" width="3.8" height="3.8" fill="none" stroke="#353233ff" stroke-width="0.8"/>
      <circle cx="50" cy="7.4" r="0.5" fill="#372128ff" transform="translate(-1.3 2)"/>
      <circle cx="50" cy="7.4" r="0.5" fill="#372128ff" transform="translate(2 -1.3)"/>
      <circle cx="50" cy="7.4" r="0.5" fill="#372128ff" transform="translate(2 5.2)"/>
      <circle cx="50" cy="7.4" r="0.5" fill="#372128ff" transform="translate(5.2 2)"/>
    </g>
  </g>  
  
  
  
</svg>  
  